<svg xmlns="http://www.w3.org/2000/svg" viewBox="0 0 74 64"><path fill="#FA504B" d="M58.9 5.5H53V12c0 3.9-3.1 7-7 7s-7-3.1-7-7V5.5H25V12c0 3.9-3.1 7-7 7s-7-3.1-7-7V5.5H5.1c-2.8 0-5.1 2.2-5.1 5V59c0 2.8 2.3 5 5.1 5H59c2.8 0 5.1-2.2 5.1-5V10.5c-.1-2.8-2.4-5-5.2-5zM58 58H6V25h52v33z"/><path fill="#FA504B" d="M18 15c1.7 0 3-1.3 3-3V3c0-1.7-1.3-3-3-3s-3 1.3-3 3v9c0 1.7 1.3 3 3 3zM46 15c1.7 0 3-1.3 3-3V3c0-1.7-1.3-3-3-3s-3 1.3-3 3v9c0 1.7 1.3 3 3 3zM12 30h10v10H12zM12 44h10v10H12zM27 30h10v10H27zM27 44h10v10H27zM42 30h10v10H42zM42 44h10v10H42z"/></svg>